<?xml version="1.0" encoding="UTF-8" standalone="no"?>
<!-- Generator: Adobe Illustrator 15.0.2, SVG Export Plug-In . SVG Version: 6.00 Build 0)  -->

<svg
   version="1.1"
   x="0px"
   y="0px"
   width="511.99545"
   height="512"
   viewBox="0 0 511.99545 512"
   enable-background="new 0 0 202 223.666"
   xml:space="preserve"
   id="svg34"
   sodipodi:docname="Symfony_logo_notext.svg"
   inkscape:version="1.2.2 (b0a8486541, 2022-12-01)"
   inkscape:export-filename="Symfony_logo_notext.png"
   inkscape:export-xdpi="54.776443"
   inkscape:export-ydpi="54.776443"
   xmlns:inkscape="http://www.inkscape.org/namespaces/inkscape"
   xmlns:sodipodi="http://sodipodi.sourceforge.net/DTD/sodipodi-0.dtd"
   xmlns="http://www.w3.org/2000/svg"
   xmlns:svg="http://www.w3.org/2000/svg"><defs
   id="defs38" /><sodipodi:namedview
   id="namedview36"
   pagecolor="#505050"
   bordercolor="#eeeeee"
   borderopacity="1"
   inkscape:showpageshadow="0"
   inkscape:pageopacity="0"
   inkscape:pagecheckerboard="0"
   inkscape:deskcolor="#505050"
   showgrid="false"
   inkscape:zoom="0.74776675"
   inkscape:cx="-264.11979"
   inkscape:cy="149.77933"
   inkscape:window-width="1920"
   inkscape:window-height="1028"
   inkscape:window-x="0"
   inkscape:window-y="28"
   inkscape:window-maximized="1"
   inkscape:current-layer="g11" />
<g
   id="fond"
   transform="translate(-43.785998,-28.368997)">
</g>
<g
   id="compacte"
   transform="translate(-43.785998,-28.368997)">
</g>
<g
   id="rectangle"
   transform="translate(-43.785998,-28.368997)">
</g>
<g
   id="carré"
   transform="translate(-43.785998,-28.368997)">
	
	<g
   id="g31">
		<g
   id="g11">
			<path
   d="m 555.78144,284.35074 c 0,141.395 -114.61413,256.01826 -256.00457,256.01826 -141.38131,0 -255.990872,-114.62326 -255.990872,-256.01826 0,-141.37218 114.604992,-255.981743 255.990872,-255.981743 141.39044,0 256.00457,114.609563 256.00457,255.981743 z"
   id="path7"
   style="stroke-width:0.999999" />
			<path
   fill="#ffffff"
   d="m 411.71154,123.08576 c -26.00489,0.89011 -48.70496,15.24597 -65.6079,35.05661 -18.71512,21.75062 -31.14927,47.52271 -40.12796,73.85625 -16.04022,-13.15536 -28.4059,-30.17699 -54.15516,-37.58087 -19.89737,-5.71953 -40.78983,-3.36416 -60.00706,10.95062 -9.09281,6.79679 -15.36922,17.06271 -18.34995,26.74436 -7.72341,25.09652 8.11597,47.45424 15.30988,55.46523 l 15.7344,16.84817 c 3.23634,3.30938 11.05561,11.92746 7.23042,24.27944 -4.10819,13.45206 -20.31731,22.13862 -36.93725,17.03076 -7.42671,-2.27777 -18.08976,-7.80558 -15.69788,-15.5792 0.9814,-3.1907 3.26374,-5.59171 4.49163,-8.31225 1.11378,-2.37819 1.65697,-4.14015 1.99932,-5.20371 3.0355,-9.90076 -1.11834,-22.79593 -11.73118,-26.07792 -9.90988,-3.04007 -20.04344,-0.62993 -23.97361,12.11918 -4.45968,14.48824 2.47861,40.78526 39.62584,52.22431 43.52406,13.39728 80.32438,-10.31158 85.55091,-41.20065 3.29113,-19.34961 -5.45477,-33.74199 -21.45848,-52.22431 l -13.05037,-14.43803 c -7.89687,-7.8923 -10.60828,-21.34893 -2.43296,-31.68789 6.90177,-8.72764 16.72492,-12.44327 32.82449,-8.07033 23.50801,6.37227 33.97479,22.68181 51.44832,35.83717 -7.20304,23.67691 -11.92747,47.43598 -16.19086,68.73926 l -2.62012,15.8896 c -12.48892,65.51204 -22.02906,101.49528 -46.81518,122.15038 -4.99375,3.55587 -12.13288,8.86914 -22.88723,9.25257 -5.65105,0.1689 -7.47235,-3.71563 -7.54995,-5.41369 -0.12324,-3.94843 3.20896,-5.76973 5.42282,-7.54082 3.31851,-1.80761 8.32595,-4.80659 7.97903,-14.40608 -0.35604,-11.33862 -9.75468,-21.17547 -23.32999,-20.72813 -10.17463,0.34235 -25.67623,9.90988 -25.09195,27.43819 0.59797,18.10802 17.46896,31.66963 42.91239,30.81147 13.59814,-0.46559 43.9714,-5.98884 73.89277,-41.56125 34.83294,-40.78527 44.5785,-87.52742 51.90935,-121.74413 l 8.18444,-45.17647 c 4.52815,0.54319 9.39864,0.91293 14.68452,1.04074 43.38256,0.9175 65.07384,-21.54521 65.40249,-37.89583 0.22367,-9.89163 -6.48182,-19.63719 -15.88046,-19.40439 -6.71462,0.18715 -15.15468,4.66509 -17.17226,13.95418 -1.99019,9.1065 13.79898,17.33659 1.46069,25.34757 -8.76415,5.66931 -24.47116,9.65883 -46.60064,6.42248 l 4.02146,-22.23904 c 8.21183,-42.16835 18.34082,-94.03206 56.76615,-95.30103 2.80727,-0.13238 13.04125,0.11868 13.28317,6.90177 0.0639,2.25038 -0.49755,2.84378 -3.14505,8.02011 -2.70228,4.03516 -3.71564,7.48605 -3.58326,11.42992 0.36517,10.75434 8.54961,17.8387 20.40861,17.42788 15.85307,-0.5295 20.39948,-15.95806 20.13929,-23.88688 -0.66644,-18.64665 -20.30818,-30.42348 -46.28568,-29.56532 z"
   id="path9"
   style="stroke-width:0.999999" />
		</g>
		
	</g>
</g>
</svg>
